<?xml version="1.0" encoding="UTF-8" standalone="no"?>
<!-- Created with Inkscape (http://www.inkscape.org/) -->

<svg
   xmlns:dc="http://purl.org/dc/elements/1.1/"
   xmlns:cc="http://creativecommons.org/ns#"
   xmlns:rdf="http://www.w3.org/1999/02/22-rdf-syntax-ns#"
   xmlns:svg="http://www.w3.org/2000/svg"
   xmlns="http://www.w3.org/2000/svg"
   xmlns:sodipodi="http://sodipodi.sourceforge.net/DTD/sodipodi-0.dtd"
   xmlns:inkscape="http://www.inkscape.org/namespaces/inkscape"
   width="210mm"
   height="297mm"
   viewBox="0 0 210 297"
   version="1.1"
   id="svg1135"
   inkscape:version="0.92.1 r15371"
   sodipodi:docname="mtglogo.svg">
  <defs
     id="defs1129" />
  <sodipodi:namedview
     id="base"
     pagecolor="#ffffff"
     bordercolor="#666666"
     borderopacity="1.0"
     inkscape:pageopacity="0.0"
     inkscape:pageshadow="2"
     inkscape:zoom="0.98994949"
     inkscape:cx="-70"
     inkscape:cy="1166.0915"
     inkscape:document-units="mm"
     inkscape:current-layer="layer1"
     showgrid="false"
     inkscape:window-width="1920"
     inkscape:window-height="971"
     inkscape:window-x="0"
     inkscape:window-y="31"
     inkscape:window-maximized="1" />
  <metadata
     id="metadata1132">
    <rdf:RDF>
      <cc:Work
         rdf:about="">
        <dc:format>image/svg+xml</dc:format>
        <dc:type
           rdf:resource="http://purl.org/dc/dcmitype/StillImage" />
        <dc:title></dc:title>
      </cc:Work>
    </rdf:RDF>
  </metadata>
  <g
     inkscape:label="Layer 1"
     inkscape:groupmode="layer"
     id="layer1">
    <path
       style="fill:#2b0000;stroke:#00fa00;stroke-width:1;stroke-miterlimit:4;stroke-dasharray:none;stroke-opacity:1"
       d="m -10.729057,59.599028 c -13.524751,-1.28164 -31.031961,-9.863113 -42.9948,-19.137073 -3.568381,-2.76633 -9.838404,-9.036353 -12.604724,-12.604733 -9.25282,-11.93556 -14.360374,-26.0269873 -16.020664,-40.348957 -0.43508,-3.753091 -0.43508,-16.090664 0,-19.843755 1.66029,-14.32198 7.29701,-27.884228 16.54983,-39.819789 2.76632,-3.568391 11.15301,-11.955081 14.721391,-14.721401 29.980574,-21.85069 70.634462,-22.0005 98.954166,-0.529167 19.43737,13.473107 30.35042,35.702729 32.85874,56.12869 0.43508,3.753091 0.43508,15.032331 0,18.785422 -1.66029,14.3219697 -6.238677,28.942563 -15.491507,40.878123 -2.76631,3.56838 -13.798843,14.071737 -17.367233,16.838067 -11.8043,9.15106 -25.47871,12.758313 -39.4229096,14.385233 -6.3339045,0.507193 -13.3670433,0.548121 -19.1822894,-0.01066 z M 9.6618224,51.712165 c 13.0440896,-2.01131 25.2854096,-7.36414 35.5684896,-15.55325 4.2878,-3.41465 12.405417,-10.499127 12.429047,-11.656357 0.006,-0.31661 -1.29447,-0.75897 -4.62903,-1.57402 -2.22709,-0.54436 -8.37144,-0.61846 -10.97502,-0.13236 -3.95088,0.73764 -5.37277,1.32175 -7.57091,3.11008 -10.55837,8.58993 -22.087015,10.435217 -35.6884666,10.465667 -7.04089,0.0158 -11.9469294,-0.74227 -18.2562394,-2.82079 -7.370731,-2.42819 -12.165452,-1.160936 -17.119812,-6.82213 l -2.303145,-2.631733 -2.759962,-0.14086 c -3.480609,-0.17764 -6.754761,1.347383 -9.832722,2.329813 -2.42381,0.77364 -4.89374,2.11156 -4.89374,2.65087 0,0.54122 0.1842,-0.42531 3.44636,2.71981 11.224151,10.82142 25.2696,17.76644 40.457271,20.00481 5.0290594,0.74118 5.2325004,0.75214 12.32033036,0.66323 4.71375104,-0.0591 7.24092904,-0.21702 9.80754904,-0.61278 z M 0.51573236,23.845855 c 0.50932004,-0.89341 1.77423004,-2.52923 2.81090904,-3.63515 1.666031,-1.77731 3.356671,-3.12333 9.8113716,-7.81145 l 1.642084,-1.19266 -0.403072,-1.3981203 c -0.221689,-0.76897 -1.163502,-3.71985 -2.092912,-6.55751 -3.0709606,-9.376142 -4.0521386,-14.2157707 -3.7280506,-18.3885407 0.21027,-2.70727 0.666742,-4.388239 1.9125296,-7.042989 1.294061,-2.75758 1.28378,-3.437101 -0.0797,-5.265941 -3.0231896,-4.055081 -4.7459286,-4.311161 -8.0478606,-1.19629 -1.026948,0.968769 -2.00658904,1.715889 -2.17697804,1.660261 -0.470561,-0.153641 -2.01580996,-2.247011 -5.31848996,-7.205041 -4.361029,-6.546832 -6.4668724,-10.16259 -9.5538904,-16.404162 -1.51143,-3.05594 -2.85841,-5.68602 -2.993289,-5.844619 -0.161521,-0.18995 -3.348242,-0.359259 -9.336342,-0.496059 -10.623629,-0.242689 -15.321029,-0.196281 -15.74496,0.155548 -0.167471,0.138991 -0.93581,1.214332 -1.70742,2.389632 -1.355529,2.064719 -1.38548,2.149711 -0.88646,2.515209 0.28406,0.20806 1.34991,0.62879 2.368561,0.934961 2.531909,0.760999 4.4011,1.615109 4.992838,2.281449 0.454912,0.512252 0.47004,0.727562 0.187071,2.662811 -0.301328,2.060819 -1.625049,6.316869 -3.570229,11.479089 -0.53558,1.421352 -0.89539,2.711132 -0.799571,2.86617 0.0958,0.15504 0.70345,0.508751 1.350291,0.786011 0.646829,0.27727 1.973169,0.975889 2.94741,1.55249 2.030109,1.201521 3.852609,1.71213 4.628629,1.296821 0.280382,-0.15005 1.027171,-1.38 1.65953,-2.733212 1.099071,-2.351939 2.109841,-3.574428 2.955409,-3.574428 0.936371,0 7.356883,6.9459 9.782802,10.583328 5.043469,7.562202 8.9731994,19.0294227 11.9986984,35.013042 1.422242,7.51362 1.410081,7.30512 0.627481,10.75988 -0.139139,0.61423 0.045,0.75954 2.57928,2.03509 1.50101,0.75549 2.84817096,1.37928 2.99369196,1.38619 0.145518,0.007 0.681299,-0.7184 1.190627,-1.61181 z M -58.974458,17.806295 c 4.25425,-2.03237 8.9041,-2.80123 15.498631,-2.56272 l 4.56864,0.16524 v -1.56829 -1.5683 l -1.256771,-0.84482 c -1.813719,-1.2192 -2.94775,-2.3419603 -3.55396,-3.5186303 -0.496949,-0.9646 -0.511019,-1.20227 -0.21925,-3.70416 0.560419,-4.80554 1.586809,-8.548572 4.034221,-14.7119797 2.958489,-7.450492 4.46037,-11.750212 4.38258,-12.54692 -0.0739,-0.757322 -0.311211,-0.930691 -3.377841,-2.468182 -1.81407,-0.90951 -3.562141,-1.653648 -3.884591,-1.653648 -0.718547,0 -1.252889,0.730718 -2.805409,3.836458 -1.701559,3.40387 -3.2336,7.401822 -6.240301,16.2844507 -3.630479,10.725431 -5.030119,13.802541 -7.993049,17.5728013 -1.25432,1.5961 -4.73527,4.63962 -5.30643,4.63962 -0.50295,0 -0.19474,0.93698 0.86093,2.61725 0.60415,0.96161 1.22265,1.82927 1.37445,1.92814 0.1518,0.0989 0.5987,-0.05 0.99313,-0.33089 0.39442,-0.28086 1.71068,-0.98529 2.92502,-1.56542 z m 89.99826,0.94652 c 7.03633,-3.04424 10.85844,-3.9295 17.11694,-3.96455 4.61519,-0.0258 6.42979,0.23718 10.93089,1.58442 1.16981,0.35014 2.33378,0.63662 2.5866,0.63662 0.46059,0 2.62209,-3.37937 2.62209,-4.09947 0,-0.19184 -0.62508,-0.79678 -1.38907,-1.3443 -0.76399,-0.54752 -2.14475,-1.7195503 -3.06839,-2.6045103 -3.05065,-2.92293 -4.46269,-5.29262 -5.30824,-8.90834 -0.28626,-1.224119 -1.04908,-3.773488 -1.69514,-5.665261 -2.12348,-6.2179487 -3.40937,-9.1764197 -9.8326,-22.6218697 -1.70321,-3.56526 -4.11572,-8.863542 -5.36113,-11.773961 l -2.26438,-5.291669 -0.23993,-3.938979 c -0.15704,-2.578201 -0.14642,-4.539613 0.0307,-5.67758 0.31418,-2.017991 0.0655,-2.497503 -1.54047,-2.970901 -0.76472,-0.225419 -1.41171,-0.168021 -3.33035,0.29549 -4.56626,1.103119 -11.806086,0.91073 -16.474315,-0.43778 -1.202743,-0.34744 -2.421263,-0.631711 -2.707804,-0.631711 -0.698259,0 -1.9099896,1.17856 -2.7650096,2.689291 l -0.698439,1.23408 0.78654,0.895811 c 0.484248,0.551539 1.9512886,1.475298 3.8172176,2.403617 2.085864,1.037741 3.335144,1.844802 4.007292,2.588792 0.899369,0.995508 0.962189,1.168138 0.794292,2.183141 -0.445431,2.692717 -1.631693,4.896659 -4.666104,8.66906 -2.248419,2.795259 -2.6418776,3.619629 -2.303569,4.826449 0.291661,1.04039 2.360671,3.395538 3.849154,4.381461 1.44086,0.954389 2.354929,1.024469 3.793029,0.290798 1.986436,-1.013399 2.214406,-0.842248 4.933836,3.704172 2.17976,3.64422 9.8298,20.8295287 10.84009,24.3515597 0.53549,1.86684 0.66421,2.81493 0.58397,4.30125 -0.16907,3.1319 -0.89455,4.3324 -5.09238,8.4267303 -1.97594,1.92719 -3.5926,3.63604 -3.5926,3.79744 0,0.28884 2.61772,3.8376 2.83078,3.8376 0.0601,0 1.32304,-0.5251 2.80647,-1.1669 z m -83.016387,-94.998592 c -3.10409,2.989738 -6.500435,6.592913 -8.116133,8.720701 -8.16716,10.75577 -12.86424,21.8485 -14.956609,35.32188 -0.678631,4.369869 -0.674311,16.31968 0.007,20.627721 1.18231,7.4710397 0.965593,8.748343 3.740362,14.958733 3.923017,12.682496 9.922119,-3.72987543 12.16357,-9.852272 1.11203,-3.045889 1.11124,-2.945268 0.0633,-8.01098 -1.66636,-8.055568 -0.867703,-13.859822 1.258517,-22.029793 2.08791,-8.022738 6.385117,-16.387492 11.644621,-22.666899 0.916387,-1.094089 2.465148,-2.719904 4.048759,-4.28561 z m 17.190239,7.34917 c 6.1022,-4.999278 11.734038,-7.75303 19.728868,-9.70276 6.1239214,-1.49346 14.80004033,-2.01435 20.7485324,-1.24568 8.2954766,1.071949 16.1303176,3.834831 23.0777236,8.023377 l 12.216531,-11.241385 c -7.312118,-4.983922 -15.425976,-8.73514 -23.423782,-10.797282 -7.108799,-1.83293 -14.4755029,-2.609038 -21.8027086,-2.328324 -5.3809475,0.206151 -10.7405934,0.982259 -15.9611464,2.328324 -9.386568,2.420229 -15.758009,5.579541 -23.980568,11.91518 z m 71.476898,2.518128 c 5.624143,4.090039 6.826469,6.541695 10.74631,12.479442 4.789316,7.254822 8.05632,16.13028 9.2035,25.00313 1.635272,15.21907 6.767496,44.863997 14.361493,22.0433317 0.96532,-3.1861097 0.909327,-1.468702 1.535717,-5.6391597 0.55135,-3.670811 0.47082,-15.826462 -0.13057,-19.711461 -2.08254,-13.453261 -6.7873,-24.56529 -14.95508,-35.32188 -2.53139,-3.333692 -5.729513,-7.643148 -9.030663,-10.186748 z"
       id="path230"
       inkscape:connector-curvature="0"
       sodipodi:nodetypes="ccsssccccscscccccccscsscscscccccscccccccscsccccccccsscccccsscccccccscccccssccscscsccccccssssccccscccsccscccsccccccccccsscccccccccsscccsscccsscccscccsccc" />
  </g>
</svg>
